<svg width="19" height="21" viewBox="0 0 19 21" fill="none" xmlns="http://www.w3.org/2000/svg">
<path d="M9.47892 11.1236C9.13093 11.1249 8.79302 11.2406 8.51712 11.4527C8.24123 11.6648 8.04264 11.9616 7.95187 12.2975C7.86111 12.6335 7.88319 12.9899 8.01473 13.3121C8.14627 13.6343 8.37999 13.9044 8.67995 14.0808V16.3462H10.2974V14.0808C10.5347 13.9404 10.7317 13.741 10.8691 13.502C11.0066 13.2629 11.0798 12.9924 11.0817 12.7167V12.7167C11.0817 12.5066 11.0402 12.2987 10.9596 12.1048C10.8789 11.9109 10.7607 11.7348 10.6117 11.5867C10.4627 11.4387 10.286 11.3215 10.0916 11.2421C9.89715 11.1626 9.68895 11.1223 9.47892 11.1236V11.1236Z" stroke="#243DE2" stroke-linecap="round" stroke-linejoin="round"/>
<path d="M15.4664 7.46487H3.48662C2.32427 7.46487 1.382 8.40714 1.382 9.56949V17.8954C1.382 19.0577 2.32427 20 3.48662 20H15.4664C16.6287 20 17.571 19.0577 17.571 17.8954V9.56949C17.571 8.40714 16.6287 7.46487 15.4664 7.46487Z" stroke="#243DE2" stroke-width="2" stroke-linecap="round" stroke-linejoin="round"/>
<path d="M4.29047 7.46487V6.19333C4.29047 4.81598 4.83762 3.49503 5.81156 2.52109C6.7855 1.54715 8.10644 1 9.4838 1C10.8612 1 12.1821 1.54715 13.156 2.52109C14.13 3.49503 14.6771 4.81598 14.6771 6.19333V7.46487" stroke="#243DE2" stroke-width="2" stroke-linecap="round" stroke-linejoin="round"/>
</svg>
