<svg width="20" height="20" viewBox="0 0 20 20" fill="none" xmlns="http://www.w3.org/2000/svg">
<path d="M14.592 12.173C14.592 13.013 14.831 13.348 15.456 13.348C16.849 13.348 17.736 11.573 17.736 8.62099C17.736 4.10899 14.448 1.94899 10.343 1.94899C6.12 1.94899 2.279 4.78099 2.279 10.133C2.279 15.245 5.639 18.029 10.799 18.029C12.551 18.029 13.727 17.837 15.526 17.237L15.912 18.844C14.136 19.421 12.238 19.588 10.775 19.588C4.007 19.588 0.382004 15.868 0.382004 10.132C0.382004 4.34799 4.583 0.411987 10.367 0.411987C16.391 0.411987 19.582 4.01199 19.582 8.42799C19.582 12.172 18.407 15.028 14.711 15.028C13.03 15.028 11.927 14.356 11.783 12.867C11.351 14.523 10.199 15.028 8.638 15.028C6.55 15.028 4.798 13.419 4.798 10.18C4.798 6.91599 6.335 4.89999 9.095 4.89999C10.559 4.89999 11.471 5.47599 11.877 6.38799L12.574 5.11599H14.59V12.173H14.592V12.173ZM11.641 9.00499C11.641 7.68599 10.656 7.13299 9.84 7.13299C8.952 7.13299 7.969 7.85199 7.969 9.96499C7.969 11.645 8.713 12.581 9.84 12.581C10.632 12.581 11.641 12.077 11.641 10.685V9.00499Z" fill="#243DE2"/>
</svg>
