<svg width="17" height="20" viewBox="0 0 17 20" fill="none" xmlns="http://www.w3.org/2000/svg">
<path d="M8.38199 9.38463C9.23396 9.38463 10.0668 9.13199 10.7752 8.65865C11.4836 8.18532 12.0357 7.51255 12.3618 6.72542C12.6878 5.9383 12.7731 5.07216 12.6069 4.23656C12.4407 3.40095 12.0304 2.63339 11.428 2.03095C10.8255 1.42851 10.058 1.01824 9.22237 0.852029C8.38676 0.685817 7.52063 0.771123 6.73351 1.09716C5.94638 1.4232 5.27361 1.97533 4.80028 2.68372C4.32694 3.39212 4.0743 4.22496 4.0743 5.07694C4.0743 6.21941 4.52815 7.31509 5.33599 8.12293C6.14384 8.93078 7.23952 9.38463 8.38199 9.38463ZM8.38199 2.00003C8.99054 2.00003 9.58543 2.18048 10.0914 2.51858C10.5974 2.85668 10.9918 3.33722 11.2247 3.89946C11.4576 4.46169 11.5185 5.08036 11.3998 5.67722C11.2811 6.27408 10.988 6.82234 10.5577 7.25265C10.1274 7.68297 9.57913 7.97601 8.98226 8.09474C8.3854 8.21346 7.76673 8.15253 7.2045 7.91964C6.64227 7.68676 6.16172 7.29238 5.82362 6.78639C5.48553 6.28039 5.30507 5.6855 5.30507 5.07694C5.30507 4.26089 5.62924 3.47827 6.20628 2.90123C6.78331 2.3242 7.56594 2.00003 8.38199 2.00003Z" fill="#243DE2"/>
<path d="M16.0558 13.92C15.0689 12.8769 13.8797 12.0461 12.5608 11.4783C11.2419 10.9105 9.82101 10.6176 8.38507 10.6176C6.94912 10.6176 5.52827 10.9105 4.20936 11.4783C2.89045 12.0461 1.7012 12.8769 0.714312 13.92C0.500351 14.1485 0.38152 14.45 0.382005 14.7631V18C0.382005 18.3264 0.511675 18.6395 0.742488 18.8703C0.973302 19.1011 1.28635 19.2308 1.61277 19.2308H15.1512C15.4776 19.2308 15.7907 19.1011 16.0215 18.8703C16.2523 18.6395 16.382 18.3264 16.382 18V14.7631C16.3841 14.4509 16.2675 14.1495 16.0558 13.92ZM15.1512 18H1.61277V14.7569C2.48491 13.8386 3.53479 13.1073 4.69852 12.6076C5.86226 12.1079 7.1155 11.8501 8.38199 11.8501C9.64848 11.8501 10.9017 12.1079 12.0655 12.6076C13.2292 13.1073 14.2791 13.8386 15.1512 14.7569V18Z" fill="#243DE2"/>
<path d="M8.38199 9.38463C9.23396 9.38463 10.0668 9.13199 10.7752 8.65865C11.4836 8.18532 12.0357 7.51255 12.3618 6.72542C12.6878 5.9383 12.7731 5.07216 12.6069 4.23656C12.4407 3.40095 12.0304 2.63339 11.428 2.03095C10.8255 1.42851 10.058 1.01824 9.22237 0.852029C8.38676 0.685817 7.52063 0.771123 6.73351 1.09716C5.94638 1.4232 5.27361 1.97533 4.80028 2.68372C4.32694 3.39212 4.0743 4.22496 4.0743 5.07694C4.0743 6.21941 4.52815 7.31509 5.33599 8.12293C6.14384 8.93078 7.23952 9.38463 8.38199 9.38463ZM8.38199 2.00003C8.99054 2.00003 9.58543 2.18048 10.0914 2.51858C10.5974 2.85668 10.9918 3.33722 11.2247 3.89946C11.4576 4.46169 11.5185 5.08036 11.3998 5.67722C11.2811 6.27408 10.988 6.82234 10.5577 7.25265C10.1274 7.68297 9.57913 7.97601 8.98226 8.09474C8.3854 8.21346 7.76673 8.15253 7.2045 7.91964C6.64227 7.68676 6.16172 7.29238 5.82362 6.78639C5.48553 6.28039 5.30507 5.6855 5.30507 5.07694C5.30507 4.26089 5.62924 3.47827 6.20628 2.90123C6.78331 2.3242 7.56594 2.00003 8.38199 2.00003Z" stroke="#243DE2" stroke-width="0.6"/>
<path d="M16.0558 13.92C15.0689 12.8769 13.8797 12.0461 12.5608 11.4783C11.2419 10.9105 9.82101 10.6176 8.38507 10.6176C6.94912 10.6176 5.52827 10.9105 4.20936 11.4783C2.89045 12.0461 1.7012 12.8769 0.714312 13.92C0.500351 14.1485 0.38152 14.45 0.382005 14.7631V18C0.382005 18.3264 0.511675 18.6395 0.742488 18.8703C0.973302 19.1011 1.28635 19.2308 1.61277 19.2308H15.1512C15.4776 19.2308 15.7907 19.1011 16.0215 18.8703C16.2523 18.6395 16.382 18.3264 16.382 18V14.7631C16.3841 14.4509 16.2675 14.1495 16.0558 13.92ZM15.1512 18H1.61277V14.7569C2.48491 13.8386 3.53479 13.1073 4.69852 12.6076C5.86226 12.1079 7.1155 11.8501 8.38199 11.8501C9.64848 11.8501 10.9017 12.1079 12.0655 12.6076C13.2292 13.1073 14.2791 13.8386 15.1512 14.7569V18Z" stroke="#243DE2" stroke-width="0.6"/>
</svg>
